
<svg version="1.1" id="Layer_1" xmlns="http://www.w3.org/2000/svg" xmlns:xlink="http://www.w3.org/1999/xlink" x="0px" y="0px"
	 width="100%" viewBox="0 0 134 134" enable-background="new 0 0 134 134" xml:space="preserve">
<path fill="#FFFFFF" opacity="1.000000" stroke="none" 
	d="
M75.000000,135.000000 
	C50.022869,135.000000 25.545740,135.000000 1.034305,135.000000 
	C1.034305,90.397919 1.034305,45.795807 1.034305,1.096847 
	C45.560219,1.096847 90.120712,1.096847 134.840607,1.096847 
	C134.840607,45.666214 134.840607,90.333054 134.840607,135.000000 
	C115.129555,135.000000 95.314781,135.000000 75.000000,135.000000 
M40.285564,44.234177 
	C38.819210,46.140663 37.352856,48.047146 35.302876,50.272018 
	C33.927498,52.188000 32.552124,54.103985 30.875931,56.638035 
	C28.125559,60.133503 25.375187,63.628967 22.102333,67.722122 
	C21.366226,70.464417 20.630119,73.206718 19.207588,76.400192 
	C19.487360,79.624054 19.381395,82.938286 20.111996,86.056519 
	C23.766428,101.653801 42.611031,107.777954 52.837097,102.009125 
	C54.927517,100.688118 57.017933,99.367119 59.958351,97.948715 
	C60.247581,91.970863 60.536816,85.993011 60.976189,79.119194 
	C60.976189,75.951424 60.976189,72.783653 60.976189,68.034088 
	C58.347462,71.469810 56.652645,73.684914 54.335487,76.199478 
	C51.545238,79.427109 48.754990,82.654739 45.184818,85.986336 
	C40.409374,86.040573 37.928642,83.350266 37.141830,78.369621 
	C39.776333,74.610931 42.410831,70.852242 45.660793,66.828842 
	C47.125290,64.920280 48.589787,63.011715 50.667580,60.822369 
	C52.147293,58.898239 53.627010,56.974110 55.704388,54.783440 
	C56.820629,53.226337 57.936871,51.669235 59.673107,49.814533 
	C61.798233,46.911705 63.923359,44.008877 66.629616,40.861862 
	C68.067520,41.830574 69.801422,42.544022 70.893791,43.810719 
	C76.642853,50.477234 82.229897,57.283470 87.999840,64.737717 
	C88.780037,65.770172 89.655762,66.744659 90.323593,67.845291 
	C92.972969,72.211624 95.557350,76.617386 97.877724,81.598679 
	C96.570419,83.029106 95.263115,84.459541 93.180748,85.983521 
	C88.745628,86.222015 86.420891,83.145744 84.034866,80.163223 
	C81.046356,76.427620 78.055161,72.694176 74.167542,67.838768 
	C74.167542,73.207008 74.167542,77.106979 74.034729,81.931213 
	C74.019630,85.894196 73.768417,89.876938 74.097740,93.811096 
	C74.243309,95.550140 75.108109,97.850807 76.429451,98.766197 
	C83.663704,103.777824 91.423691,106.364716 100.774139,102.022011 
	C102.867020,100.716156 104.959900,99.410309 107.662025,97.823822 
	C109.126129,95.917389 110.590233,94.010956 112.700729,91.783600 
	C113.746765,89.190163 114.792809,86.596725 115.975861,83.103333 
	C116.695915,75.559540 114.803879,68.814178 109.755241,62.345413 
	C104.158676,55.520840 98.530655,48.721748 92.974068,41.864777 
	C87.008484,34.503082 81.309799,26.914516 75.121910,19.746737 
	C69.726982,13.497483 62.391140,14.659214 58.347107,22.194275 
	C56.548908,24.428482 54.750713,26.662687 52.338161,29.201420 
	C50.209099,32.097076 48.080040,34.992737 45.343868,38.183239 
	C43.858696,40.105885 42.373528,42.028530 40.285564,44.234177 
M62.320133,103.229057 
	C61.532433,104.450150 60.744732,105.671242 59.341434,107.171478 
	C56.631363,109.546654 53.802719,111.803886 51.267292,114.352791 
	C50.194622,115.431152 48.926407,117.342720 49.232513,118.473434 
	C49.533699,119.586014 51.697891,120.865463 53.075855,120.902275 
	C60.042641,121.088402 67.019615,120.893181 74.863106,120.976761 
	C77.733391,120.925117 80.603683,120.873466 84.233498,120.873108 
	C87.341980,118.754410 88.158577,117.452705 84.327576,114.413567 
	C79.309746,110.432922 75.437485,105.014503 71.029182,100.254623 
	C69.980675,99.122490 68.730080,97.297043 67.627174,97.336113 
	C66.455078,97.377625 65.259865,99.180420 64.245422,100.360825 
	C63.628090,101.079132 63.333458,102.074768 62.320133,103.229057 
z"/>
<path fill="#65DC6F" opacity="1.000000" stroke="none" 
	d="
M52.952515,28.896896 
	C54.750713,26.662687 56.548908,24.428482 58.794495,22.355415 
	C72.446991,33.654175 85.583145,44.875340 98.905624,55.870743 
	C102.240646,58.623222 106.174957,60.649590 109.833832,63.009678 
	C114.803879,68.814178 116.695915,75.559540 115.570206,83.508507 
	C109.214096,79.213554 103.346474,74.402740 97.277512,69.860985 
	C94.337502,67.660805 91.019859,65.965240 87.873184,64.041206 
	C82.229897,57.283470 76.642853,50.477234 70.893791,43.810719 
	C69.801422,42.544022 68.067520,41.830574 66.191879,40.671562 
	C61.486931,36.619808 57.219723,32.758350 52.952515,28.896896 
z"/>
<path fill="#6FE46F" opacity="1.000000" stroke="none" 
	d="
M109.794540,62.677544 
	C106.174957,60.649590 102.240646,58.623222 98.905624,55.870743 
	C85.583145,44.875340 72.446991,33.654175 59.096809,22.206291 
	C62.391140,14.659214 69.726982,13.497483 75.121910,19.746737 
	C81.309799,26.914516 87.008484,34.503082 92.974068,41.864777 
	C98.530655,48.721748 104.158676,55.520840 109.794540,62.677544 
z"/>
<path fill="#21AA72" opacity="1.000000" stroke="none" 
	d="
M52.108097,102.046074 
	C42.611031,107.777954 23.766428,101.653801 20.111996,86.056519 
	C19.381395,82.938286 19.487360,79.624054 19.862446,76.321373 
	C31.047569,84.843727 41.577831,93.444901 52.108097,102.046074 
z"/>
<path fill="#28AF72" opacity="1.000000" stroke="none" 
	d="
M52.472595,102.027603 
	C41.577831,93.444901 31.047569,84.843727 20.205660,76.095779 
	C20.630119,73.206718 21.366226,70.464417 22.506258,67.802879 
	C27.551109,71.590218 32.192036,75.296799 36.832962,79.003380 
	C37.928642,83.350266 40.409374,86.040573 45.615990,86.288300 
	C50.400894,90.408875 54.754623,94.227493 59.108353,98.046112 
	C57.017933,99.367119 54.927517,100.688118 52.472595,102.027603 
z"/>
<path fill="#41C171" opacity="1.000000" stroke="none" 
	d="
M100.049622,102.105392 
	C91.423691,106.364716 83.663704,103.777824 76.429451,98.766197 
	C75.108109,97.850807 74.243309,95.550140 74.097740,93.811096 
	C73.768417,89.876938 74.019630,85.894196 74.455841,81.472435 
	C77.259262,82.679893 79.803246,84.158760 81.992989,86.048172 
	C88.090530,91.309418 94.041039,96.741051 100.049622,102.105392 
z"/>
<path fill="#30B571" opacity="1.000000" stroke="none" 
	d="
M36.987396,78.686501 
	C32.192036,75.296799 27.551109,71.590218 22.767498,67.504036 
	C25.375187,63.628967 28.125559,60.133503 31.361074,56.367786 
	C36.245922,59.762875 40.645626,63.428211 45.045334,67.093544 
	C42.410831,70.852242 39.776333,74.610931 36.987396,78.686501 
z"/>
<path fill="#49C870" opacity="1.000000" stroke="none" 
	d="
M100.411880,102.063698 
	C94.041039,96.741051 88.090530,91.309418 81.992989,86.048172 
	C79.803246,84.158760 77.259262,82.679893 74.522247,81.010300 
	C74.167542,77.106979 74.167542,73.207008 74.167542,67.838768 
	C78.055161,72.694176 81.046356,76.427620 84.034866,80.163223 
	C86.420891,83.145744 88.745628,86.222015 93.712074,86.248749 
	C98.513191,90.377472 102.782982,94.240967 107.052773,98.104462 
	C104.959900,99.410309 102.867020,100.716156 100.411880,102.063698 
z"/>
<path fill="#5AD470" opacity="1.000000" stroke="none" 
	d="
M52.645340,29.049158 
	C57.219723,32.758350 61.486931,36.619808 65.901314,40.793655 
	C63.923359,44.008877 61.798233,46.911705 59.216850,49.650764 
	C54.490719,45.620792 50.220852,41.754597 45.950981,37.888397 
	C48.080040,34.992737 50.209099,32.097076 52.645340,29.049158 
z"/>
<path fill="#21AA72" opacity="1.000000" stroke="none" 
	d="
M73.993019,120.831696 
	C67.019615,120.893181 60.042641,121.088402 53.075855,120.902275 
	C51.697891,120.865463 49.533699,119.586014 49.232513,118.473434 
	C48.926407,117.342720 50.194622,115.431152 51.267292,114.352791 
	C53.802719,111.803886 56.631363,109.546654 59.792053,107.342728 
	C62.391556,109.474030 64.591705,111.381363 66.676086,113.407776 
	C69.166794,115.829208 71.558456,118.352509 73.993019,120.831696 
z"/>
<path fill="#30B571" opacity="1.000000" stroke="none" 
	d="
M59.533352,97.997414 
	C54.754623,94.227493 50.400894,90.408875 46.005951,86.236313 
	C48.754990,82.654739 51.545238,79.427109 54.825424,76.329781 
	C57.152260,77.645103 58.989155,78.830132 60.826050,80.015160 
	C60.536816,85.993011 60.247581,91.970863 59.533352,97.997414 
z"/>
<path fill="#5AD470" opacity="1.000000" stroke="none" 
	d="
M87.936508,64.389465 
	C91.019859,65.965240 94.337502,67.660805 97.277512,69.860985 
	C103.346474,74.402740 109.214096,79.213554 115.501694,83.958481 
	C114.792809,86.596725 113.746765,89.190163 112.229752,91.632713 
	C107.227791,87.990730 102.696808,84.499634 98.165817,81.008545 
	C95.557350,76.617386 92.972969,72.211624 90.323593,67.845291 
	C89.655762,66.744659 88.780037,65.770172 87.936508,64.389465 
z"/>
<path fill="#28AF72" opacity="1.000000" stroke="none" 
	d="
M74.428062,120.904221 
	C71.558456,118.352509 69.166794,115.829208 66.676086,113.407776 
	C64.591705,111.381363 62.391556,109.474030 60.099846,107.203148 
	C60.744732,105.671242 61.532433,104.450150 62.918106,103.234604 
	C70.168709,109.100708 76.821335,114.961266 83.473969,120.821823 
	C80.603683,120.873466 77.733391,120.925117 74.428062,120.904221 
z"/>
<path fill="#30B571" opacity="1.000000" stroke="none" 
	d="
M83.853729,120.847466 
	C76.821335,114.961266 70.168709,109.100708 63.204971,103.092987 
	C63.333458,102.074768 63.628090,101.079132 64.245422,100.360825 
	C65.259865,99.180420 66.455078,97.377625 67.627174,97.336113 
	C68.730080,97.297043 69.980675,99.122490 71.029182,100.254623 
	C75.437485,105.014503 79.309746,110.432922 84.327576,114.413567 
	C88.158577,117.452705 87.341980,118.754410 83.853729,120.847466 
z"/>
<path fill="#51CE70" opacity="1.000000" stroke="none" 
	d="
M98.021774,81.303612 
	C102.696808,84.499634 107.227791,87.990730 111.906555,91.793175 
	C110.590233,94.010956 109.126129,95.917389 107.357399,97.964142 
	C102.782982,94.240967 98.513191,90.377472 94.099609,86.201981 
	C95.263115,84.459541 96.570419,83.029106 98.021774,81.303612 
z"/>
<path fill="#41C171" opacity="1.000000" stroke="none" 
	d="
M45.353062,66.961197 
	C40.645626,63.428211 36.245922,59.762875 31.511484,56.058754 
	C32.552124,54.103985 33.927498,52.188000 35.948669,50.155563 
	C41.081066,53.727127 45.567673,57.415142 50.054283,61.103157 
	C48.589787,63.011715 47.125290,64.920280 45.353062,66.961197 
z"/>
<path fill="#51CE70" opacity="1.000000" stroke="none" 
	d="
M45.647423,38.035820 
	C50.220852,41.754597 54.490719,45.620792 58.906853,49.799564 
	C57.936871,51.669235 56.820629,53.226337 55.086372,54.779518 
	C49.941692,51.167458 45.415024,47.559315 40.888355,43.951176 
	C42.373528,42.028530 43.858696,40.105885 45.647423,38.035820 
z"/>
<path fill="#49C870" opacity="1.000000" stroke="none" 
	d="
M40.586960,44.092674 
	C45.415024,47.559315 49.941692,51.167458 54.787544,54.912788 
	C53.627010,56.974110 52.147293,58.898239 50.360931,60.962761 
	C45.567673,57.415142 41.081066,53.727127 36.240479,49.996368 
	C37.352856,48.047146 38.819210,46.140663 40.586960,44.092674 
z"/>
<path fill="#41C171" opacity="1.000000" stroke="none" 
	d="
M60.901119,79.567177 
	C58.989155,78.830132 57.152260,77.645103 55.136597,76.180054 
	C56.652645,73.684914 58.347462,71.469810 60.976189,68.034088 
	C60.976189,72.783653 60.976189,75.951424 60.901119,79.567177 
z"/>
</svg>